<?xml version="1.0" encoding="UTF-8"?> <svg xmlns="http://www.w3.org/2000/svg" xmlns:xlink="http://www.w3.org/1999/xlink" width="176" height="42" viewBox="0 0 176 42"><defs><path id="a" d="M0 .234h18.129v19.272H0z"></path><path id="c" d="M.094.219h18.153v17.27H.094z"></path></defs><g fill="none" fill-rule="evenodd"><path fill="#F3F4F7" d="M0 0h176v42H0z"></path><g opacity=".6"><path fill="#000" d="M36.788 27.15c-.427-.393-.356-1.354.178-2.601.428.677.997 1.282 1.603 1.781 1.639-.534 4.31-2.244 7.053-4.987 3.028-3.028 4.488-5.628 4.987-7.053a10.843 10.843 0 0 0-1.78-1.603c.676-.285 1.994-.677 2.6-.178 1.068.962-.855 5.13-5.13 9.44-3.277 3.241-8.193 6.411-9.511 5.2m14.961-11.043c.855-1.78 1.104-3.348.25-4.167-1.105-1.033-3.1-.25-4.168.25a8.736 8.736 0 0 0-3.74-.856 8.529 8.529 0 0 0-8.55 8.55c0 1.353.32 2.635.89 3.775-.854 1.781-1.068 3.313-.249 4.168.356.356 1.496 1.104 4.168-.25 7.196 3.527 14.997-4.131 11.4-11.47"></path><g transform="translate(18 11.275)"><mask id="b" fill="#fff"><use xlink:href="#a"></use></mask><path fill="#000" d="M18.129.234l-2.502 12.435c-.27 1.382-.817 2.589-1.643 3.621a8 8 0 0 1-3.073 2.382c-1.24.556-2.605.834-4.098.834-1.366 0-2.668-.238-3.907-.715-1.223-.46-2.191-1.063-2.906-1.81l2.144-2.763c.524.492 1.183.881 1.977 1.167.81.27 1.596.405 2.359.405.81 0 1.556-.15 2.239-.453a4.929 4.929 0 0 0 1.739-1.286c.476-.54.778-1.144.905-1.81l.262-1.263a7.218 7.218 0 0 1-2.263 1.691 6.282 6.282 0 0 1-2.716.596c-1.54 0-2.763-.453-3.668-1.358-.89-.905-1.334-2.112-1.334-3.621 0-.493.048-1.009.143-1.549L3.097.234h4.336L6.17 6.666a4.148 4.148 0 0 0-.072.762c0 .636.191 1.136.572 1.501.397.35.945.524 1.644.524.984 0 1.874-.317 2.668-.953a4.417 4.417 0 0 0 1.596-2.43L13.745.234h4.384z" mask="url(#b)"></path></g><path fill="#000" d="M57.612 28.423c-1.43 0-2.557-.405-3.382-1.215-.826-.81-1.24-1.914-1.24-3.311 0-.556.056-1.088.167-1.597l2.145-10.791h4.43l-1.953 9.743a3.422 3.422 0 0 0-.095.834c0 .714.214 1.286.643 1.715.429.413 1.016.62 1.763.62a4.074 4.074 0 0 0 2.692-.977c.794-.667 1.31-1.525 1.548-2.573l1.882-9.362h4.36l-3.336 16.7h-4.36l.501-2.502a7.95 7.95 0 0 1-2.596 2.025c-.985.46-2.041.69-3.169.69M75.547 20.109h3.145c1.064 0 1.897-.278 2.5-.834.605-.556.906-1.326.906-2.31 0-.636-.206-1.12-.62-1.454-.396-.35-.976-.524-1.738-.524H76.57l-1.024 5.122zm10.792-3.883c0 1.524-.358 2.858-1.073 4.002-.714 1.128-1.739 1.985-3.072 2.573l2.334 5.407h-4.955l-1.5-4.621h-3.217l-.929 4.621h-4.36l3.336-16.7h7.504c1.906 0 3.367.414 4.383 1.24 1.033.825 1.549 1.985 1.549 3.478zM96.355 24.492h7.075l-.738 3.716H91.257l3.335-16.7h4.36zM114.071 14.94c-.89 0-1.73.238-2.525.714a5.354 5.354 0 0 0-1.906 1.954 5.294 5.294 0 0 0-.714 2.691c0 .842.182 1.604.548 2.287a4.216 4.216 0 0 0 1.5 1.62 3.876 3.876 0 0 0 2.097.596c.873 0 1.7-.238 2.477-.715a5.421 5.421 0 0 0 1.859-1.977c.46-.826.69-1.731.69-2.716 0-.842-.174-1.596-.524-2.263a3.928 3.928 0 0 0-1.453-1.596 3.72 3.72 0 0 0-2.049-.596m.31-3.692c1.588 0 3.002.342 4.24 1.024 1.255.667 2.232 1.596 2.93 2.787.7 1.192 1.049 2.534 1.049 4.026 0 1.731-.445 3.32-1.334 4.765-.89 1.445-2.097 2.588-3.621 3.43-1.525.826-3.192 1.239-5.003 1.239-1.588 0-3.01-.342-4.264-1.024a7.498 7.498 0 0 1-2.906-2.811c-.683-1.208-1.025-2.565-1.025-4.074 0-1.747.445-3.335 1.334-4.764a9.387 9.387 0 0 1 3.597-3.36c1.525-.825 3.193-1.238 5.003-1.238M135.295 19.537h3.764l-1.715 8.671h-3.192l.19-1c-1.334.873-2.676 1.31-4.026 1.31-1.477 0-2.803-.342-3.978-1.024a7.22 7.22 0 0 1-2.716-2.811c-.635-1.191-.952-2.533-.952-4.026 0-1.747.444-3.336 1.334-4.765.905-1.445 2.128-2.58 3.668-3.406 1.54-.826 3.224-1.24 5.05-1.24 1.255 0 2.486.231 3.693.692 1.207.444 2.207 1.048 3.001 1.81l-2.787 3.05a5.657 5.657 0 0 0-1.93-1.359 5.556 5.556 0 0 0-2.286-.5 5.08 5.08 0 0 0-2.62.715 5.297 5.297 0 0 0-1.93 1.954 5.384 5.384 0 0 0-.715 2.739c0 .842.167 1.604.5 2.287.35.667.826 1.199 1.43 1.596.619.381 1.318.572 2.096.572.588 0 1.183-.127 1.787-.382a5.147 5.147 0 0 0 1.596-1.048l.738-3.835z"></path><g transform="translate(139.728 11.028)"><mask id="d" fill="#fff"><use xlink:href="#c"></use></mask><path fill="#000" d="M9.719 3.911c-.89 0-1.732.239-2.526.715A5.354 5.354 0 0 0 5.288 6.58a5.292 5.292 0 0 0-.715 2.691c0 .842.183 1.604.548 2.287a4.215 4.215 0 0 0 1.5 1.62 3.875 3.875 0 0 0 2.097.596c.873 0 1.7-.238 2.477-.715a5.42 5.42 0 0 0 1.859-1.977c.46-.826.69-1.731.69-2.716 0-.842-.174-1.596-.523-2.263a3.928 3.928 0 0 0-1.454-1.596A3.719 3.719 0 0 0 9.72 3.91m.31-3.692c1.588 0 3 .341 4.24 1.024 1.254.667 2.231 1.596 2.93 2.787.699 1.192 1.048 2.533 1.048 4.026 0 1.731-.445 3.32-1.334 4.765-.89 1.445-2.097 2.588-3.621 3.43-1.525.826-3.192 1.239-5.003 1.239-1.588 0-3.01-.342-4.264-1.024a7.496 7.496 0 0 1-2.906-2.811C.436 12.447.094 11.09.094 9.58c0-1.747.445-3.335 1.334-4.764a9.387 9.387 0 0 1 3.597-3.36C6.55.633 8.218.22 10.028.22" mask="url(#d)"></path></g></g></g></svg> 